<?xml version="1.0" encoding="UTF-8" standalone="no"?>
<!DOCTYPE svg PUBLIC "-//W3C//DTD SVG 1.1//EN"
 "http://www.w3.org/Graphics/SVG/1.1/DTD/svg11.dtd">
<!-- Generated by graphviz version 2.36.0 (20140111.2315)
 -->
<!-- Title: G Pages: 1 -->
<svg width="178pt" height="2310pt"
 viewBox="0.00 0.00 178.00 2310.00" xmlns="http://www.w3.org/2000/svg" xmlns:xlink="http://www.w3.org/1999/xlink">
<g id="graph0" class="graph" transform="scale(1 1) rotate(0) translate(4 2306)">
<title>G</title>
<polygon fill="white" stroke="none" points="-4,4 -4,-2306 174,-2306 174,4 -4,4"/>
<g id="clust1" class="cluster"><title>cluster_Global</title>
<path fill="none" stroke="gray" d="M20,-8C20,-8 150,-8 150,-8 156,-8 162,-14 162,-20 162,-20 162,-2282 162,-2282 162,-2288 156,-2294 150,-2294 150,-2294 20,-2294 20,-2294 14,-2294 8,-2288 8,-2282 8,-2282 8,-20 8,-20 8,-14 14,-8 20,-8"/>
<text text-anchor="middle" x="85" y="-2281.2" font-family="Times,serif" font-size="11.00" fill="gray">Global</text>
</g>
<!-- \\DWT -->
<g id="node1" class="node"><title>\\DWT</title>
<polygon fill="none" stroke="black" points="112,-2266 58,-2266 58,-2230 112,-2230 112,-2266"/>
<text text-anchor="middle" x="85" y="-2245.2" font-family="Courier,monospace" font-size="11.00">DWT</text>
</g>
<!-- \\Scheduler -->
<g id="node2" class="node"><title>\\Scheduler</title>
<polygon fill="none" stroke="black" points="123.5,-2212 46.5,-2212 46.5,-2176 123.5,-2176 123.5,-2212"/>
<text text-anchor="middle" x="85" y="-2191.2" font-family="Courier,monospace" font-size="11.00">Scheduler</text>
</g>
<!-- \\Fit -->
<g id="node3" class="node"><title>\\Fit</title>
<polygon fill="none" stroke="black" points="112,-2158 58,-2158 58,-2122 112,-2122 112,-2158"/>
<text text-anchor="middle" x="85" y="-2137.2" font-family="Courier,monospace" font-size="11.00">Fit</text>
</g>
<!-- \\Polyfit -->
<g id="node4" class="node"><title>\\Polyfit</title>
<polygon fill="none" stroke="black" points="117,-2104 53,-2104 53,-2068 117,-2068 117,-2104"/>
<text text-anchor="middle" x="85" y="-2083.2" font-family="Courier,monospace" font-size="11.00">Polyfit</text>
</g>
<!-- \\Logfit -->
<g id="node5" class="node"><title>\\Logfit</title>
<polygon fill="none" stroke="black" points="113.5,-2050 56.5,-2050 56.5,-2014 113.5,-2014 113.5,-2050"/>
<text text-anchor="middle" x="85" y="-2029.2" font-family="Courier,monospace" font-size="11.00">Logfit</text>
</g>
<!-- \\Expfit -->
<g id="node6" class="node"><title>\\Expfit</title>
<polygon fill="none" stroke="black" points="113.5,-1996 56.5,-1996 56.5,-1960 113.5,-1960 113.5,-1996"/>
<text text-anchor="middle" x="85" y="-1975.2" font-family="Courier,monospace" font-size="11.00">Expfit</text>
</g>
<!-- \\tSNE -->
<g id="node7" class="node"><title>\\tSNE</title>
<polygon fill="none" stroke="black" points="112,-1942 58,-1942 58,-1906 112,-1906 112,-1942"/>
<text text-anchor="middle" x="85" y="-1921.2" font-family="Courier,monospace" font-size="11.00">tSNE</text>
</g>
<!-- \\WXT520 -->
<g id="node8" class="node"><title>\\WXT520</title>
<polygon fill="none" stroke="black" points="113.5,-1888 56.5,-1888 56.5,-1852 113.5,-1852 113.5,-1888"/>
<text text-anchor="middle" x="85" y="-1867.2" font-family="Courier,monospace" font-size="11.00">WXT520</text>
</g>
<!-- \\ConvexHull -->
<g id="node9" class="node"><title>\\ConvexHull</title>
<polygon fill="none" stroke="black" points="127,-1834 43,-1834 43,-1798 127,-1798 127,-1834"/>
<text text-anchor="middle" x="85" y="-1813.2" font-family="Courier,monospace" font-size="11.00">ConvexHull</text>
</g>
<!-- \\FtpReader -->
<g id="node10" class="node"><title>\\FtpReader</title>
<polygon fill="none" stroke="black" points="123.5,-1780 46.5,-1780 46.5,-1744 123.5,-1744 123.5,-1780"/>
<text text-anchor="middle" x="85" y="-1759.2" font-family="Courier,monospace" font-size="11.00">FtpReader</text>
</g>
<!-- \\Filesystem -->
<g id="node11" class="node"><title>\\Filesystem</title>
<polygon fill="none" stroke="black" points="127,-1726 43,-1726 43,-1690 127,-1690 127,-1726"/>
<text text-anchor="middle" x="85" y="-1705.2" font-family="Courier,monospace" font-size="11.00">Filesystem</text>
</g>
<!-- \\Cyclical -->
<g id="node12" class="node"><title>\\Cyclical</title>
<polygon fill="none" stroke="black" points="120.5,-1672 49.5,-1672 49.5,-1636 120.5,-1636 120.5,-1672"/>
<text text-anchor="middle" x="85" y="-1651.2" font-family="Courier,monospace" font-size="11.00">Cyclical</text>
</g>
<!-- \\RT_HTTP -->
<g id="node13" class="node"><title>\\RT_HTTP</title>
<polygon fill="none" stroke="black" points="117,-1618 53,-1618 53,-1582 117,-1582 117,-1618"/>
<text text-anchor="middle" x="85" y="-1597.2" font-family="Courier,monospace" font-size="11.00">RT_HTTP</text>
</g>
<!-- \\ColorTerm -->
<g id="node14" class="node"><title>\\ColorTerm</title>
<polygon fill="none" stroke="black" points="123.5,-1564 46.5,-1564 46.5,-1528 123.5,-1528 123.5,-1564"/>
<text text-anchor="middle" x="85" y="-1543.2" font-family="Courier,monospace" font-size="11.00">ColorTerm</text>
</g>
<!-- \\RSS -->
<g id="node15" class="node"><title>\\RSS</title>
<polygon fill="none" stroke="black" points="112,-1510 58,-1510 58,-1474 112,-1474 112,-1510"/>
<text text-anchor="middle" x="85" y="-1489.2" font-family="Courier,monospace" font-size="11.00">RSS</text>
</g>
<!-- \\RSS_Item -->
<g id="node16" class="node"><title>\\RSS_Item</title>
<polygon fill="none" stroke="black" points="120.5,-1456 49.5,-1456 49.5,-1420 120.5,-1420 120.5,-1456"/>
<text text-anchor="middle" x="85" y="-1435.2" font-family="Courier,monospace" font-size="11.00">RSS_Item</text>
</g>
<!-- \\SocketServer -->
<g id="node17" class="node"><title>\\SocketServer</title>
<polygon fill="none" stroke="black" points="134,-1402 36,-1402 36,-1366 134,-1366 134,-1402"/>
<text text-anchor="middle" x="85" y="-1381.2" font-family="Courier,monospace" font-size="11.00">SocketServer</text>
</g>
<!-- \\SocketClient -->
<g id="node18" class="node"><title>\\SocketClient</title>
<polygon fill="none" stroke="black" points="134,-1348 36,-1348 36,-1312 134,-1312 134,-1348"/>
<text text-anchor="middle" x="85" y="-1327.2" font-family="Courier,monospace" font-size="11.00">SocketClient</text>
</g>
<!-- \\SocketCallback -->
<g id="node19" class="node"><title>\\SocketCallback</title>
<polygon fill="none" stroke="black" points="140.5,-1294 29.5,-1294 29.5,-1258 140.5,-1258 140.5,-1294"/>
<text text-anchor="middle" x="85" y="-1273.2" font-family="Courier,monospace" font-size="11.00">SocketCallback</text>
</g>
<!-- \\Ublox -->
<g id="node20" class="node"><title>\\Ublox</title>
<polygon fill="none" stroke="black" points="112,-1240 58,-1240 58,-1204 112,-1204 112,-1240"/>
<text text-anchor="middle" x="85" y="-1219.2" font-family="Courier,monospace" font-size="11.00">Ublox</text>
</g>
<!-- \\Ublox_NAV -->
<g id="node21" class="node"><title>\\Ublox_NAV</title>
<polygon fill="none" stroke="black" points="123.5,-1186 46.5,-1186 46.5,-1150 123.5,-1150 123.5,-1186"/>
<text text-anchor="middle" x="85" y="-1165.2" font-family="Courier,monospace" font-size="11.00">Ublox_NAV</text>
</g>
<!-- \\Ublox_ACK -->
<g id="node22" class="node"><title>\\Ublox_ACK</title>
<polygon fill="none" stroke="black" points="123.5,-1132 46.5,-1132 46.5,-1096 123.5,-1096 123.5,-1132"/>
<text text-anchor="middle" x="85" y="-1111.2" font-family="Courier,monospace" font-size="11.00">Ublox_ACK</text>
</g>
<!-- \\Ublox_CFG -->
<g id="node23" class="node"><title>\\Ublox_CFG</title>
<polygon fill="none" stroke="black" points="123.5,-1078 46.5,-1078 46.5,-1042 123.5,-1042 123.5,-1078"/>
<text text-anchor="middle" x="85" y="-1057.2" font-family="Courier,monospace" font-size="11.00">Ublox_CFG</text>
</g>
<!-- \\A -->
<g id="node24" class="node"><title>\\A</title>
<polygon fill="none" stroke="black" points="112,-1024 58,-1024 58,-988 112,-988 112,-1024"/>
<text text-anchor="middle" x="85" y="-1003.2" font-family="Courier,monospace" font-size="11.00">A</text>
</g>
<!-- \\HClust -->
<g id="node25" class="node"><title>\\HClust</title>
<polygon fill="none" stroke="black" points="113.5,-970 56.5,-970 56.5,-934 113.5,-934 113.5,-970"/>
<text text-anchor="middle" x="85" y="-949.2" font-family="Courier,monospace" font-size="11.00">HClust</text>
</g>
<!-- \\HTMLTable -->
<g id="node26" class="node"><title>\\HTMLTable</title>
<polygon fill="none" stroke="black" points="123.5,-916 46.5,-916 46.5,-880 123.5,-880 123.5,-916"/>
<text text-anchor="middle" x="85" y="-895.2" font-family="Courier,monospace" font-size="11.00">HTMLTable</text>
</g>
<!-- \\PriorityQueue -->
<g id="node27" class="node"><title>\\PriorityQueue</title>
<polygon fill="none" stroke="black" points="137,-862 33,-862 33,-826 137,-826 137,-862"/>
<text text-anchor="middle" x="85" y="-841.2" font-family="Courier,monospace" font-size="11.00">PriorityQueue</text>
</g>
<!-- \\Table -->
<g id="node28" class="node"><title>\\Table</title>
<polygon fill="none" stroke="black" points="112,-808 58,-808 58,-772 112,-772 112,-808"/>
<text text-anchor="middle" x="85" y="-787.2" font-family="Courier,monospace" font-size="11.00">Table</text>
</g>
<!-- \\AIS -->
<g id="node29" class="node"><title>\\AIS</title>
<polygon fill="none" stroke="black" points="112,-754 58,-754 58,-718 112,-718 112,-754"/>
<text text-anchor="middle" x="85" y="-733.2" font-family="Courier,monospace" font-size="11.00">AIS</text>
</g>
<!-- \\AIS_Message -->
<g id="node30" class="node"><title>\\AIS_Message</title>
<polygon fill="none" stroke="black" points="130.5,-700 39.5,-700 39.5,-664 130.5,-664 130.5,-700"/>
<text text-anchor="middle" x="85" y="-679.2" font-family="Courier,monospace" font-size="11.00">AIS_Message</text>
</g>
<!-- \\AIS_Sixbit -->
<g id="node31" class="node"><title>\\AIS_Sixbit</title>
<polygon fill="none" stroke="black" points="127,-646 43,-646 43,-610 127,-610 127,-646"/>
<text text-anchor="middle" x="85" y="-625.2" font-family="Courier,monospace" font-size="11.00">AIS_Sixbit</text>
</g>
<!-- \\ChiSquare -->
<g id="node32" class="node"><title>\\ChiSquare</title>
<polygon fill="none" stroke="black" points="123.5,-592 46.5,-592 46.5,-556 123.5,-556 123.5,-592"/>
<text text-anchor="middle" x="85" y="-571.2" font-family="Courier,monospace" font-size="11.00">ChiSquare</text>
</g>
<!-- \\DirectoryListing -->
<g id="node33" class="node"><title>\\DirectoryListing</title>
<polygon fill="none" stroke="black" points="147.5,-538 22.5,-538 22.5,-502 147.5,-502 147.5,-538"/>
<text text-anchor="middle" x="85" y="-517.2" font-family="Courier,monospace" font-size="11.00">DirectoryListing</text>
</g>
<!-- \\KeySort -->
<g id="node34" class="node"><title>\\KeySort</title>
<polygon fill="none" stroke="black" points="117,-484 53,-484 53,-448 117,-448 117,-484"/>
<text text-anchor="middle" x="85" y="-463.2" font-family="Courier,monospace" font-size="11.00">KeySort</text>
</g>
<!-- \\DirectoryWatcher -->
<g id="node35" class="node"><title>\\DirectoryWatcher</title>
<polygon fill="none" stroke="black" points="147.5,-430 22.5,-430 22.5,-394 147.5,-394 147.5,-430"/>
<text text-anchor="middle" x="85" y="-409.2" font-family="Courier,monospace" font-size="11.00">DirectoryWatcher</text>
</g>
<!-- \\Alarm -->
<g id="node36" class="node"><title>\\Alarm</title>
<polygon fill="none" stroke="black" points="112,-376 58,-376 58,-340 112,-340 112,-376"/>
<text text-anchor="middle" x="85" y="-355.2" font-family="Courier,monospace" font-size="11.00">Alarm</text>
</g>
<!-- \\RelayServer -->
<g id="node37" class="node"><title>\\RelayServer</title>
<polygon fill="none" stroke="black" points="130.5,-322 39.5,-322 39.5,-286 130.5,-286 130.5,-322"/>
<text text-anchor="middle" x="85" y="-301.2" font-family="Courier,monospace" font-size="11.00">RelayServer</text>
</g>
<!-- \\USMarketCalendar -->
<g id="node38" class="node"><title>\\USMarketCalendar</title>
<polygon fill="none" stroke="black" points="147.5,-268 22.5,-268 22.5,-232 147.5,-232 147.5,-268"/>
<text text-anchor="middle" x="85" y="-247.2" font-family="Courier,monospace" font-size="11.00">USMarketCalendar</text>
</g>
<!-- \\Histogram -->
<g id="node39" class="node"><title>\\Histogram</title>
<polygon fill="none" stroke="black" points="123.5,-214 46.5,-214 46.5,-178 123.5,-178 123.5,-214"/>
<text text-anchor="middle" x="85" y="-193.2" font-family="Courier,monospace" font-size="11.00">Histogram</text>
</g>
<!-- \\ConfusionMatrix -->
<g id="node40" class="node"><title>\\ConfusionMatrix</title>
<polygon fill="none" stroke="black" points="144,-160 26,-160 26,-124 144,-124 144,-160"/>
<text text-anchor="middle" x="85" y="-139.2" font-family="Courier,monospace" font-size="11.00">ConfusionMatrix</text>
</g>
<!-- \\Units -->
<g id="node41" class="node"><title>\\Units</title>
<polygon fill="none" stroke="black" points="112,-106 58,-106 58,-70 112,-70 112,-106"/>
<text text-anchor="middle" x="85" y="-85.2" font-family="Courier,monospace" font-size="11.00">Units</text>
</g>
<!-- \\MultipleRegression -->
<g id="node42" class="node"><title>\\MultipleRegression</title>
<polygon fill="none" stroke="black" points="154,-52 16,-52 16,-16 154,-16 154,-52"/>
<text text-anchor="middle" x="85" y="-31.2" font-family="Courier,monospace" font-size="11.00">MultipleRegression</text>
</g>
</g>
</svg>
